<mxfile host="app.diagrams.net" agent="Mozilla/5.0 (Windows NT 10.0; Win64; x64) AppleWebKit/537.36 (KHTML, like Gecko) Chrome/132.0.0.0 Safari/537.36" version="26.0.10">
  <diagram name="第 1 页" id="1qyMVIh-5OPETK_NTGqE">
    <mxGraphModel dx="1663" dy="442" grid="1" gridSize="10" guides="1" tooltips="1" connect="1" arrows="1" fold="1" page="1" pageScale="1" pageWidth="827" pageHeight="1169" math="1" shadow="0">
      <root>
        <mxCell id="0" />
        <mxCell id="1" parent="0" />
        <mxCell id="iUH99zcMU_aRpIpPgrOb-38" value="" style="group" vertex="1" connectable="0" parent="1">
          <mxGeometry x="-20" y="110" width="720" height="390" as="geometry" />
        </mxCell>
        <mxCell id="iUH99zcMU_aRpIpPgrOb-34" value="" style="group" vertex="1" connectable="0" parent="iUH99zcMU_aRpIpPgrOb-38">
          <mxGeometry x="420" y="30" width="240" height="90" as="geometry" />
        </mxCell>
        <mxCell id="iUH99zcMU_aRpIpPgrOb-27" value="" style="shape=cube;whiteSpace=wrap;html=1;boundedLbl=1;backgroundOutline=1;darkOpacity=0.05;darkOpacity2=0.1;size=10;strokeColor=#A3A6A9;" vertex="1" parent="iUH99zcMU_aRpIpPgrOb-34">
          <mxGeometry x="40" y="50" width="40" height="40" as="geometry" />
        </mxCell>
        <mxCell id="iUH99zcMU_aRpIpPgrOb-30" value="zero element" style="text;html=1;align=center;verticalAlign=middle;resizable=0;points=[];autosize=1;strokeColor=none;fillColor=none;fontColor=#303030;fontSize=16;" vertex="1" parent="iUH99zcMU_aRpIpPgrOb-34">
          <mxGeometry x="80" y="60" width="120" height="30" as="geometry" />
        </mxCell>
        <mxCell id="iUH99zcMU_aRpIpPgrOb-31" value="" style="shape=cube;whiteSpace=wrap;html=1;boundedLbl=1;backgroundOutline=1;darkOpacity=0.05;darkOpacity2=0.1;size=10;fillColor=#A8D19E;strokeColor=#A3A6A9;" vertex="1" parent="iUH99zcMU_aRpIpPgrOb-34">
          <mxGeometry width="40" height="40" as="geometry" />
        </mxCell>
        <mxCell id="iUH99zcMU_aRpIpPgrOb-32" value="" style="shape=cube;whiteSpace=wrap;html=1;boundedLbl=1;backgroundOutline=1;darkOpacity=0.05;darkOpacity2=0.1;size=10;fillColor=#77ACFA;strokeColor=#A3A6A9;" vertex="1" parent="iUH99zcMU_aRpIpPgrOb-34">
          <mxGeometry x="40" width="40" height="40" as="geometry" />
        </mxCell>
        <mxCell id="iUH99zcMU_aRpIpPgrOb-33" value="none-zero element" style="text;html=1;align=center;verticalAlign=middle;resizable=0;points=[];autosize=1;strokeColor=none;fillColor=none;fontColor=#303030;fontSize=16;" vertex="1" parent="iUH99zcMU_aRpIpPgrOb-34">
          <mxGeometry x="80" y="10" width="160" height="30" as="geometry" />
        </mxCell>
        <mxCell id="iUH99zcMU_aRpIpPgrOb-21" value="Kernel(\(K\))" style="text;html=1;align=center;verticalAlign=middle;whiteSpace=wrap;rounded=0;fontSize=24;fontColor=#303030;" vertex="1" parent="iUH99zcMU_aRpIpPgrOb-38">
          <mxGeometry x="520" y="360" width="180" height="30" as="geometry" />
        </mxCell>
        <mxCell id="iUH99zcMU_aRpIpPgrOb-35" value="" style="group" vertex="1" connectable="0" parent="iUH99zcMU_aRpIpPgrOb-38">
          <mxGeometry x="400" y="155" width="295" height="195" as="geometry" />
        </mxCell>
        <mxCell id="iUH99zcMU_aRpIpPgrOb-22" value="$$O$$" style="text;html=1;align=center;verticalAlign=middle;resizable=0;points=[];autosize=1;strokeColor=none;fillColor=none;fontSize=18;fontColor=#5E5E5E;" vertex="1" parent="iUH99zcMU_aRpIpPgrOb-35">
          <mxGeometry x="45" y="5" width="80" height="40" as="geometry" />
        </mxCell>
        <mxCell id="iUH99zcMU_aRpIpPgrOb-12" value="$$w_k$$" style="text;html=1;align=center;verticalAlign=middle;resizable=0;points=[];autosize=1;strokeColor=none;fillColor=none;fontSize=18;fontColor=#5E5E5E;" vertex="1" parent="iUH99zcMU_aRpIpPgrOb-35">
          <mxGeometry x="125" y="5" width="100" height="40" as="geometry" />
        </mxCell>
        <mxCell id="iUH99zcMU_aRpIpPgrOb-6" value="$$H_K$$" style="text;html=1;align=center;verticalAlign=middle;resizable=0;points=[];autosize=1;strokeColor=none;fillColor=none;fontSize=24;fontColor=#303030;" vertex="1" parent="iUH99zcMU_aRpIpPgrOb-35">
          <mxGeometry y="55" width="120" height="40" as="geometry" />
        </mxCell>
        <mxCell id="ZZ2-Vk3kk8kp50ai1rFV-563" value="" style="shape=cube;whiteSpace=wrap;html=1;boundedLbl=1;backgroundOutline=1;darkOpacity=0.05;darkOpacity2=0.1;size=10;strokeColor=#C6C6C6;" parent="iUH99zcMU_aRpIpPgrOb-35" vertex="1">
          <mxGeometry x="145" y="35" width="40" height="40" as="geometry" />
        </mxCell>
        <mxCell id="ZZ2-Vk3kk8kp50ai1rFV-564" value="" style="shape=cube;whiteSpace=wrap;html=1;boundedLbl=1;backgroundOutline=1;darkOpacity=0.05;darkOpacity2=0.1;size=10;strokeColor=#C6C6C6;" parent="iUH99zcMU_aRpIpPgrOb-35" vertex="1">
          <mxGeometry x="155" y="45" width="40" height="40" as="geometry" />
        </mxCell>
        <mxCell id="ZZ2-Vk3kk8kp50ai1rFV-565" value="" style="shape=cube;whiteSpace=wrap;html=1;boundedLbl=1;backgroundOutline=1;darkOpacity=0.05;darkOpacity2=0.1;size=10;fillColor=#77ACFA;strokeColor=#C6C6C6;" parent="iUH99zcMU_aRpIpPgrOb-35" vertex="1">
          <mxGeometry x="165" y="55" width="40" height="40" as="geometry" />
        </mxCell>
        <mxCell id="ZZ2-Vk3kk8kp50ai1rFV-566" value="" style="shape=cube;whiteSpace=wrap;html=1;boundedLbl=1;backgroundOutline=1;darkOpacity=0.05;darkOpacity2=0.1;size=10;strokeColor=#C6C6C6;" parent="iUH99zcMU_aRpIpPgrOb-35" vertex="1">
          <mxGeometry x="175" y="65" width="40" height="40" as="geometry" />
        </mxCell>
        <mxCell id="ZZ2-Vk3kk8kp50ai1rFV-575" value="" style="shape=cube;whiteSpace=wrap;html=1;boundedLbl=1;backgroundOutline=1;darkOpacity=0.05;darkOpacity2=0.1;size=10;fillColor=#77ACFA;strokeColor=#C6C6C6;" parent="iUH99zcMU_aRpIpPgrOb-35" vertex="1">
          <mxGeometry x="185" y="75" width="40" height="40" as="geometry" />
        </mxCell>
        <mxCell id="ZZ2-Vk3kk8kp50ai1rFV-576" value="" style="shape=cube;whiteSpace=wrap;html=1;boundedLbl=1;backgroundOutline=1;darkOpacity=0.05;darkOpacity2=0.1;size=10;strokeColor=#C6C6C6;" parent="iUH99zcMU_aRpIpPgrOb-35" vertex="1">
          <mxGeometry x="195" y="85" width="40" height="40" as="geometry" />
        </mxCell>
        <mxCell id="ZZ2-Vk3kk8kp50ai1rFV-577" value="" style="shape=cube;whiteSpace=wrap;html=1;boundedLbl=1;backgroundOutline=1;darkOpacity=0.05;darkOpacity2=0.1;size=10;fillColor=#77ACFA;strokeColor=#C6C6C6;" parent="iUH99zcMU_aRpIpPgrOb-35" vertex="1">
          <mxGeometry x="205" y="95" width="40" height="40" as="geometry" />
        </mxCell>
        <mxCell id="ZZ2-Vk3kk8kp50ai1rFV-578" value="" style="shape=cube;whiteSpace=wrap;html=1;boundedLbl=1;backgroundOutline=1;darkOpacity=0.05;darkOpacity2=0.1;size=10;fillColor=#77ACFA;strokeColor=#C6C6C6;" parent="iUH99zcMU_aRpIpPgrOb-35" vertex="1">
          <mxGeometry x="215" y="105" width="40" height="40" as="geometry" />
        </mxCell>
        <mxCell id="ZZ2-Vk3kk8kp50ai1rFV-579" value="" style="shape=cube;whiteSpace=wrap;html=1;boundedLbl=1;backgroundOutline=1;darkOpacity=0.05;darkOpacity2=0.1;size=10;fillColor=#77ACFA;strokeColor=#C6C6C6;" parent="iUH99zcMU_aRpIpPgrOb-35" vertex="1">
          <mxGeometry x="115" y="35" width="40" height="40" as="geometry" />
        </mxCell>
        <mxCell id="ZZ2-Vk3kk8kp50ai1rFV-580" value="" style="shape=cube;whiteSpace=wrap;html=1;boundedLbl=1;backgroundOutline=1;darkOpacity=0.05;darkOpacity2=0.1;size=10;fillColor=#77ACFA;strokeColor=#C6C6C6;" parent="iUH99zcMU_aRpIpPgrOb-35" vertex="1">
          <mxGeometry x="125" y="45" width="40" height="40" as="geometry" />
        </mxCell>
        <mxCell id="ZZ2-Vk3kk8kp50ai1rFV-581" value="" style="shape=cube;whiteSpace=wrap;html=1;boundedLbl=1;backgroundOutline=1;darkOpacity=0.05;darkOpacity2=0.1;size=10;strokeColor=#C6C6C6;" parent="iUH99zcMU_aRpIpPgrOb-35" vertex="1">
          <mxGeometry x="135" y="55" width="40" height="40" as="geometry" />
        </mxCell>
        <mxCell id="ZZ2-Vk3kk8kp50ai1rFV-582" value="" style="shape=cube;whiteSpace=wrap;html=1;boundedLbl=1;backgroundOutline=1;darkOpacity=0.05;darkOpacity2=0.1;size=10;fillColor=#77ACFA;strokeColor=#C6C6C6;" parent="iUH99zcMU_aRpIpPgrOb-35" vertex="1">
          <mxGeometry x="145" y="65" width="40" height="40" as="geometry" />
        </mxCell>
        <mxCell id="ZZ2-Vk3kk8kp50ai1rFV-583" value="" style="shape=cube;whiteSpace=wrap;html=1;boundedLbl=1;backgroundOutline=1;darkOpacity=0.05;darkOpacity2=0.1;size=10;strokeColor=#C6C6C6;" parent="iUH99zcMU_aRpIpPgrOb-35" vertex="1">
          <mxGeometry x="155" y="75" width="40" height="40" as="geometry" />
        </mxCell>
        <mxCell id="ZZ2-Vk3kk8kp50ai1rFV-584" value="" style="shape=cube;whiteSpace=wrap;html=1;boundedLbl=1;backgroundOutline=1;darkOpacity=0.05;darkOpacity2=0.1;size=10;fillColor=#77ACFA;strokeColor=#C6C6C6;" parent="iUH99zcMU_aRpIpPgrOb-35" vertex="1">
          <mxGeometry x="165" y="85" width="40" height="40" as="geometry" />
        </mxCell>
        <mxCell id="ZZ2-Vk3kk8kp50ai1rFV-585" value="" style="shape=cube;whiteSpace=wrap;html=1;boundedLbl=1;backgroundOutline=1;darkOpacity=0.05;darkOpacity2=0.1;size=10;strokeColor=#C6C6C6;" parent="iUH99zcMU_aRpIpPgrOb-35" vertex="1">
          <mxGeometry x="175" y="95" width="40" height="40" as="geometry" />
        </mxCell>
        <mxCell id="ZZ2-Vk3kk8kp50ai1rFV-586" value="" style="shape=cube;whiteSpace=wrap;html=1;boundedLbl=1;backgroundOutline=1;darkOpacity=0.05;darkOpacity2=0.1;size=10;strokeColor=#C6C6C6;" parent="iUH99zcMU_aRpIpPgrOb-35" vertex="1">
          <mxGeometry x="185" y="105" width="40" height="40" as="geometry" />
        </mxCell>
        <mxCell id="ZZ2-Vk3kk8kp50ai1rFV-587" value="" style="shape=cube;whiteSpace=wrap;html=1;boundedLbl=1;backgroundOutline=1;darkOpacity=0.05;darkOpacity2=0.1;size=10;fillColor=#77ACFA;strokeColor=#C6C6C6;" parent="iUH99zcMU_aRpIpPgrOb-35" vertex="1">
          <mxGeometry x="85" y="35" width="40" height="40" as="geometry" />
        </mxCell>
        <mxCell id="ZZ2-Vk3kk8kp50ai1rFV-588" value="" style="shape=cube;whiteSpace=wrap;html=1;boundedLbl=1;backgroundOutline=1;darkOpacity=0.05;darkOpacity2=0.1;size=10;strokeColor=#C6C6C6;" parent="iUH99zcMU_aRpIpPgrOb-35" vertex="1">
          <mxGeometry x="95" y="45" width="40" height="40" as="geometry" />
        </mxCell>
        <mxCell id="ZZ2-Vk3kk8kp50ai1rFV-589" value="" style="shape=cube;whiteSpace=wrap;html=1;boundedLbl=1;backgroundOutline=1;darkOpacity=0.05;darkOpacity2=0.1;size=10;fillColor=#77ACFA;strokeColor=#C6C6C6;" parent="iUH99zcMU_aRpIpPgrOb-35" vertex="1">
          <mxGeometry x="105" y="55" width="40" height="40" as="geometry" />
        </mxCell>
        <mxCell id="ZZ2-Vk3kk8kp50ai1rFV-590" value="" style="shape=cube;whiteSpace=wrap;html=1;boundedLbl=1;backgroundOutline=1;darkOpacity=0.05;darkOpacity2=0.1;size=10;strokeColor=#C6C6C6;" parent="iUH99zcMU_aRpIpPgrOb-35" vertex="1">
          <mxGeometry x="115" y="65" width="40" height="40" as="geometry" />
        </mxCell>
        <mxCell id="ZZ2-Vk3kk8kp50ai1rFV-591" value="" style="shape=cube;whiteSpace=wrap;html=1;boundedLbl=1;backgroundOutline=1;darkOpacity=0.05;darkOpacity2=0.1;size=10;fillColor=#77ACFA;strokeColor=#C6C6C6;" parent="iUH99zcMU_aRpIpPgrOb-35" vertex="1">
          <mxGeometry x="125" y="75" width="40" height="40" as="geometry" />
        </mxCell>
        <mxCell id="ZZ2-Vk3kk8kp50ai1rFV-592" value="" style="shape=cube;whiteSpace=wrap;html=1;boundedLbl=1;backgroundOutline=1;darkOpacity=0.05;darkOpacity2=0.1;size=10;fillColor=#FFFFFF;strokeColor=#C6C6C6;" parent="iUH99zcMU_aRpIpPgrOb-35" vertex="1">
          <mxGeometry x="135" y="85" width="40" height="40" as="geometry" />
        </mxCell>
        <mxCell id="ZZ2-Vk3kk8kp50ai1rFV-593" value="" style="shape=cube;whiteSpace=wrap;html=1;boundedLbl=1;backgroundOutline=1;darkOpacity=0.05;darkOpacity2=0.1;size=10;strokeColor=#C6C6C6;" parent="iUH99zcMU_aRpIpPgrOb-35" vertex="1">
          <mxGeometry x="145" y="95" width="40" height="40" as="geometry" />
        </mxCell>
        <mxCell id="ZZ2-Vk3kk8kp50ai1rFV-594" value="" style="shape=cube;whiteSpace=wrap;html=1;boundedLbl=1;backgroundOutline=1;darkOpacity=0.05;darkOpacity2=0.1;size=10;fillColor=#77ACFA;strokeColor=#C6C6C6;" parent="iUH99zcMU_aRpIpPgrOb-35" vertex="1">
          <mxGeometry x="155" y="105" width="40" height="40" as="geometry" />
        </mxCell>
        <mxCell id="ZZ2-Vk3kk8kp50ai1rFV-595" value="" style="shape=cube;whiteSpace=wrap;html=1;boundedLbl=1;backgroundOutline=1;darkOpacity=0.05;darkOpacity2=0.1;size=80;strokeColor=#303030;fillColor=none;" parent="iUH99zcMU_aRpIpPgrOb-35" vertex="1">
          <mxGeometry x="85" y="35" width="170" height="160" as="geometry" />
        </mxCell>
        <mxCell id="iUH99zcMU_aRpIpPgrOb-4" value="$$W_K$$" style="text;html=1;align=center;verticalAlign=middle;resizable=0;points=[];autosize=1;strokeColor=none;fillColor=none;fontSize=24;fontColor=#303030;" vertex="1" parent="iUH99zcMU_aRpIpPgrOb-35">
          <mxGeometry x="65" width="130" height="40" as="geometry" />
        </mxCell>
        <mxCell id="iUH99zcMU_aRpIpPgrOb-5" value="$$C$$" style="text;html=1;align=center;verticalAlign=middle;resizable=0;points=[];autosize=1;strokeColor=none;fillColor=none;fontSize=24;" vertex="1" parent="iUH99zcMU_aRpIpPgrOb-35">
          <mxGeometry x="180" y="45" width="90" height="40" as="geometry" />
        </mxCell>
        <mxCell id="iUH99zcMU_aRpIpPgrOb-13" value="$$c$$" style="text;html=1;align=center;verticalAlign=middle;resizable=0;points=[];autosize=1;strokeColor=none;fillColor=none;fontSize=18;fontColor=#5E5E5E;" vertex="1" parent="iUH99zcMU_aRpIpPgrOb-35">
          <mxGeometry x="225" y="85" width="70" height="40" as="geometry" />
        </mxCell>
        <mxCell id="iUH99zcMU_aRpIpPgrOb-14" value="$$h_k$$" style="text;html=1;align=center;verticalAlign=middle;resizable=0;points=[];autosize=1;strokeColor=none;fillColor=none;fontSize=18;fontColor=#5E5E5E;" vertex="1" parent="iUH99zcMU_aRpIpPgrOb-35">
          <mxGeometry x="25" y="95" width="90" height="40" as="geometry" />
        </mxCell>
        <mxCell id="iUH99zcMU_aRpIpPgrOb-26" value="$$\circledast$$" style="text;html=1;align=center;verticalAlign=middle;whiteSpace=wrap;rounded=0;fontSize=36;fontColor=#303030;" vertex="1" parent="iUH99zcMU_aRpIpPgrOb-35">
          <mxGeometry y="82.5" width="60" height="30" as="geometry" />
        </mxCell>
        <mxCell id="iUH99zcMU_aRpIpPgrOb-19" value="Acitvation(\(A\))" style="text;html=1;align=center;verticalAlign=middle;whiteSpace=wrap;rounded=0;fontSize=24;fontColor=#303030;" vertex="1" parent="iUH99zcMU_aRpIpPgrOb-38">
          <mxGeometry x="170" y="360" width="180" height="30" as="geometry" />
        </mxCell>
        <mxCell id="iUH99zcMU_aRpIpPgrOb-36" value="" style="group" vertex="1" connectable="0" parent="iUH99zcMU_aRpIpPgrOb-38">
          <mxGeometry width="473.5" height="350" as="geometry" />
        </mxCell>
        <mxCell id="ZZ2-Vk3kk8kp50ai1rFV-561" value="" style="shape=cube;whiteSpace=wrap;html=1;boundedLbl=1;backgroundOutline=1;darkOpacity=0.05;darkOpacity2=0.1;size=80;strokeColor=#A3A6A9;" parent="iUH99zcMU_aRpIpPgrOb-36" vertex="1">
          <mxGeometry x="80" y="40" width="320" height="310" as="geometry" />
        </mxCell>
        <mxCell id="ZZ2-Vk3kk8kp50ai1rFV-2" value="" style="shape=cube;whiteSpace=wrap;html=1;boundedLbl=1;backgroundOutline=1;darkOpacity=0.05;darkOpacity2=0.1;size=10;fillColor=#A8D19E;strokeColor=#A3A6A9;" parent="iUH99zcMU_aRpIpPgrOb-36" vertex="1">
          <mxGeometry x="290" y="40" width="40" height="40" as="geometry" />
        </mxCell>
        <mxCell id="ZZ2-Vk3kk8kp50ai1rFV-8" value="" style="shape=cube;whiteSpace=wrap;html=1;boundedLbl=1;backgroundOutline=1;darkOpacity=0.05;darkOpacity2=0.1;size=10;strokeColor=#A3A6A9;" parent="iUH99zcMU_aRpIpPgrOb-36" vertex="1">
          <mxGeometry x="300" y="50" width="40" height="40" as="geometry" />
        </mxCell>
        <mxCell id="ZZ2-Vk3kk8kp50ai1rFV-9" value="" style="shape=cube;whiteSpace=wrap;html=1;boundedLbl=1;backgroundOutline=1;darkOpacity=0.05;darkOpacity2=0.1;size=10;strokeColor=#A3A6A9;" parent="iUH99zcMU_aRpIpPgrOb-36" vertex="1">
          <mxGeometry x="310" y="60" width="40" height="40" as="geometry" />
        </mxCell>
        <mxCell id="ZZ2-Vk3kk8kp50ai1rFV-10" value="" style="shape=cube;whiteSpace=wrap;html=1;boundedLbl=1;backgroundOutline=1;darkOpacity=0.05;darkOpacity2=0.1;size=10;strokeColor=#A3A6A9;" parent="iUH99zcMU_aRpIpPgrOb-36" vertex="1">
          <mxGeometry x="320" y="70" width="40" height="40" as="geometry" />
        </mxCell>
        <mxCell id="ZZ2-Vk3kk8kp50ai1rFV-11" value="" style="shape=cube;whiteSpace=wrap;html=1;boundedLbl=1;backgroundOutline=1;darkOpacity=0.05;darkOpacity2=0.1;size=10;strokeColor=#A3A6A9;" parent="iUH99zcMU_aRpIpPgrOb-36" vertex="1">
          <mxGeometry x="330" y="80" width="40" height="40" as="geometry" />
        </mxCell>
        <mxCell id="ZZ2-Vk3kk8kp50ai1rFV-12" value="" style="shape=cube;whiteSpace=wrap;html=1;boundedLbl=1;backgroundOutline=1;darkOpacity=0.05;darkOpacity2=0.1;size=10;strokeColor=#A3A6A9;" parent="iUH99zcMU_aRpIpPgrOb-36" vertex="1">
          <mxGeometry x="340" y="90" width="40" height="40" as="geometry" />
        </mxCell>
        <mxCell id="ZZ2-Vk3kk8kp50ai1rFV-13" value="" style="shape=cube;whiteSpace=wrap;html=1;boundedLbl=1;backgroundOutline=1;darkOpacity=0.05;darkOpacity2=0.1;size=10;strokeColor=#A3A6A9;" parent="iUH99zcMU_aRpIpPgrOb-36" vertex="1">
          <mxGeometry x="350" y="100" width="40" height="40" as="geometry" />
        </mxCell>
        <mxCell id="ZZ2-Vk3kk8kp50ai1rFV-14" value="" style="shape=cube;whiteSpace=wrap;html=1;boundedLbl=1;backgroundOutline=1;darkOpacity=0.05;darkOpacity2=0.1;size=10;strokeColor=#A3A6A9;" parent="iUH99zcMU_aRpIpPgrOb-36" vertex="1">
          <mxGeometry x="360" y="110" width="40" height="40" as="geometry" />
        </mxCell>
        <mxCell id="ZZ2-Vk3kk8kp50ai1rFV-15" value="" style="shape=cube;whiteSpace=wrap;html=1;boundedLbl=1;backgroundOutline=1;darkOpacity=0.05;darkOpacity2=0.1;size=10;strokeColor=#A3A6A9;" parent="iUH99zcMU_aRpIpPgrOb-36" vertex="1">
          <mxGeometry x="300" y="50" width="40" height="40" as="geometry" />
        </mxCell>
        <mxCell id="ZZ2-Vk3kk8kp50ai1rFV-16" value="" style="shape=cube;whiteSpace=wrap;html=1;boundedLbl=1;backgroundOutline=1;darkOpacity=0.05;darkOpacity2=0.1;size=10;strokeColor=#A3A6A9;" parent="iUH99zcMU_aRpIpPgrOb-36" vertex="1">
          <mxGeometry x="310" y="60" width="40" height="40" as="geometry" />
        </mxCell>
        <mxCell id="ZZ2-Vk3kk8kp50ai1rFV-17" value="" style="shape=cube;whiteSpace=wrap;html=1;boundedLbl=1;backgroundOutline=1;darkOpacity=0.05;darkOpacity2=0.1;size=10;fillColor=#A8D19E;strokeColor=#A3A6A9;" parent="iUH99zcMU_aRpIpPgrOb-36" vertex="1">
          <mxGeometry x="320" y="70" width="40" height="40" as="geometry" />
        </mxCell>
        <mxCell id="ZZ2-Vk3kk8kp50ai1rFV-18" value="" style="shape=cube;whiteSpace=wrap;html=1;boundedLbl=1;backgroundOutline=1;darkOpacity=0.05;darkOpacity2=0.1;size=10;strokeColor=#A3A6A9;" parent="iUH99zcMU_aRpIpPgrOb-36" vertex="1">
          <mxGeometry x="330" y="80" width="40" height="40" as="geometry" />
        </mxCell>
        <mxCell id="ZZ2-Vk3kk8kp50ai1rFV-19" value="" style="shape=cube;whiteSpace=wrap;html=1;boundedLbl=1;backgroundOutline=1;darkOpacity=0.05;darkOpacity2=0.1;size=10;fillColor=#A8D19E;strokeColor=#A3A6A9;" parent="iUH99zcMU_aRpIpPgrOb-36" vertex="1">
          <mxGeometry x="340" y="90" width="40" height="40" as="geometry" />
        </mxCell>
        <mxCell id="ZZ2-Vk3kk8kp50ai1rFV-20" value="" style="shape=cube;whiteSpace=wrap;html=1;boundedLbl=1;backgroundOutline=1;darkOpacity=0.05;darkOpacity2=0.1;size=10;strokeColor=#A3A6A9;" parent="iUH99zcMU_aRpIpPgrOb-36" vertex="1">
          <mxGeometry x="350" y="100" width="40" height="40" as="geometry" />
        </mxCell>
        <mxCell id="ZZ2-Vk3kk8kp50ai1rFV-21" value="" style="shape=cube;whiteSpace=wrap;html=1;boundedLbl=1;backgroundOutline=1;darkOpacity=0.05;darkOpacity2=0.1;size=10;fillColor=#A8D19E;strokeColor=#A3A6A9;" parent="iUH99zcMU_aRpIpPgrOb-36" vertex="1">
          <mxGeometry x="360" y="110" width="40" height="40" as="geometry" />
        </mxCell>
        <mxCell id="ZZ2-Vk3kk8kp50ai1rFV-31" value="" style="shape=cube;whiteSpace=wrap;html=1;boundedLbl=1;backgroundOutline=1;darkOpacity=0.05;darkOpacity2=0.1;size=10;strokeColor=#A3A6A9;" parent="iUH99zcMU_aRpIpPgrOb-36" vertex="1">
          <mxGeometry x="260" y="40" width="40" height="40" as="geometry" />
        </mxCell>
        <mxCell id="ZZ2-Vk3kk8kp50ai1rFV-32" value="" style="shape=cube;whiteSpace=wrap;html=1;boundedLbl=1;backgroundOutline=1;darkOpacity=0.05;darkOpacity2=0.1;size=10;strokeColor=#A3A6A9;" parent="iUH99zcMU_aRpIpPgrOb-36" vertex="1">
          <mxGeometry x="270" y="50" width="40" height="40" as="geometry" />
        </mxCell>
        <mxCell id="ZZ2-Vk3kk8kp50ai1rFV-33" value="" style="shape=cube;whiteSpace=wrap;html=1;boundedLbl=1;backgroundOutline=1;darkOpacity=0.05;darkOpacity2=0.1;size=10;strokeColor=#A3A6A9;" parent="iUH99zcMU_aRpIpPgrOb-36" vertex="1">
          <mxGeometry x="280" y="60" width="40" height="40" as="geometry" />
        </mxCell>
        <mxCell id="ZZ2-Vk3kk8kp50ai1rFV-34" value="" style="shape=cube;whiteSpace=wrap;html=1;boundedLbl=1;backgroundOutline=1;darkOpacity=0.05;darkOpacity2=0.1;size=10;strokeColor=#A3A6A9;" parent="iUH99zcMU_aRpIpPgrOb-36" vertex="1">
          <mxGeometry x="290" y="70" width="40" height="40" as="geometry" />
        </mxCell>
        <mxCell id="ZZ2-Vk3kk8kp50ai1rFV-35" value="" style="shape=cube;whiteSpace=wrap;html=1;boundedLbl=1;backgroundOutline=1;darkOpacity=0.05;darkOpacity2=0.1;size=10;strokeColor=#A3A6A9;" parent="iUH99zcMU_aRpIpPgrOb-36" vertex="1">
          <mxGeometry x="300" y="80" width="40" height="40" as="geometry" />
        </mxCell>
        <mxCell id="ZZ2-Vk3kk8kp50ai1rFV-36" value="" style="shape=cube;whiteSpace=wrap;html=1;boundedLbl=1;backgroundOutline=1;darkOpacity=0.05;darkOpacity2=0.1;size=10;strokeColor=#A3A6A9;" parent="iUH99zcMU_aRpIpPgrOb-36" vertex="1">
          <mxGeometry x="310" y="90" width="40" height="40" as="geometry" />
        </mxCell>
        <mxCell id="ZZ2-Vk3kk8kp50ai1rFV-37" value="" style="shape=cube;whiteSpace=wrap;html=1;boundedLbl=1;backgroundOutline=1;darkOpacity=0.05;darkOpacity2=0.1;size=10;strokeColor=#A3A6A9;" parent="iUH99zcMU_aRpIpPgrOb-36" vertex="1">
          <mxGeometry x="320" y="100" width="40" height="40" as="geometry" />
        </mxCell>
        <mxCell id="ZZ2-Vk3kk8kp50ai1rFV-38" value="" style="shape=cube;whiteSpace=wrap;html=1;boundedLbl=1;backgroundOutline=1;darkOpacity=0.05;darkOpacity2=0.1;size=10;strokeColor=#A3A6A9;" parent="iUH99zcMU_aRpIpPgrOb-36" vertex="1">
          <mxGeometry x="330" y="110" width="40" height="40" as="geometry" />
        </mxCell>
        <mxCell id="ZZ2-Vk3kk8kp50ai1rFV-39" value="" style="shape=cube;whiteSpace=wrap;html=1;boundedLbl=1;backgroundOutline=1;darkOpacity=0.05;darkOpacity2=0.1;size=10;fillColor=#A8D19E;strokeColor=#A3A6A9;" parent="iUH99zcMU_aRpIpPgrOb-36" vertex="1">
          <mxGeometry x="270" y="50" width="40" height="40" as="geometry" />
        </mxCell>
        <mxCell id="ZZ2-Vk3kk8kp50ai1rFV-40" value="" style="shape=cube;whiteSpace=wrap;html=1;boundedLbl=1;backgroundOutline=1;darkOpacity=0.05;darkOpacity2=0.1;size=10;strokeColor=#A3A6A9;" parent="iUH99zcMU_aRpIpPgrOb-36" vertex="1">
          <mxGeometry x="280" y="60" width="40" height="40" as="geometry" />
        </mxCell>
        <mxCell id="ZZ2-Vk3kk8kp50ai1rFV-41" value="" style="shape=cube;whiteSpace=wrap;html=1;boundedLbl=1;backgroundOutline=1;darkOpacity=0.05;darkOpacity2=0.1;size=10;strokeColor=#A3A6A9;" parent="iUH99zcMU_aRpIpPgrOb-36" vertex="1">
          <mxGeometry x="290" y="70" width="40" height="40" as="geometry" />
        </mxCell>
        <mxCell id="ZZ2-Vk3kk8kp50ai1rFV-42" value="" style="shape=cube;whiteSpace=wrap;html=1;boundedLbl=1;backgroundOutline=1;darkOpacity=0.05;darkOpacity2=0.1;size=10;strokeColor=#A3A6A9;" parent="iUH99zcMU_aRpIpPgrOb-36" vertex="1">
          <mxGeometry x="300" y="80" width="40" height="40" as="geometry" />
        </mxCell>
        <mxCell id="ZZ2-Vk3kk8kp50ai1rFV-43" value="" style="shape=cube;whiteSpace=wrap;html=1;boundedLbl=1;backgroundOutline=1;darkOpacity=0.05;darkOpacity2=0.1;size=10;fillColor=#A8D19E;strokeColor=#A3A6A9;" parent="iUH99zcMU_aRpIpPgrOb-36" vertex="1">
          <mxGeometry x="310" y="90" width="40" height="40" as="geometry" />
        </mxCell>
        <mxCell id="ZZ2-Vk3kk8kp50ai1rFV-44" value="" style="shape=cube;whiteSpace=wrap;html=1;boundedLbl=1;backgroundOutline=1;darkOpacity=0.05;darkOpacity2=0.1;size=10;strokeColor=#A3A6A9;" parent="iUH99zcMU_aRpIpPgrOb-36" vertex="1">
          <mxGeometry x="320" y="100" width="40" height="40" as="geometry" />
        </mxCell>
        <mxCell id="ZZ2-Vk3kk8kp50ai1rFV-45" value="" style="shape=cube;whiteSpace=wrap;html=1;boundedLbl=1;backgroundOutline=1;darkOpacity=0.05;darkOpacity2=0.1;size=10;strokeColor=#A3A6A9;" parent="iUH99zcMU_aRpIpPgrOb-36" vertex="1">
          <mxGeometry x="330" y="110" width="40" height="40" as="geometry" />
        </mxCell>
        <mxCell id="ZZ2-Vk3kk8kp50ai1rFV-63" value="" style="shape=cube;whiteSpace=wrap;html=1;boundedLbl=1;backgroundOutline=1;darkOpacity=0.05;darkOpacity2=0.1;size=10;strokeColor=#A3A6A9;" parent="iUH99zcMU_aRpIpPgrOb-36" vertex="1">
          <mxGeometry x="230" y="40" width="40" height="40" as="geometry" />
        </mxCell>
        <mxCell id="ZZ2-Vk3kk8kp50ai1rFV-64" value="" style="shape=cube;whiteSpace=wrap;html=1;boundedLbl=1;backgroundOutline=1;darkOpacity=0.05;darkOpacity2=0.1;size=10;strokeColor=#A3A6A9;" parent="iUH99zcMU_aRpIpPgrOb-36" vertex="1">
          <mxGeometry x="240" y="50" width="40" height="40" as="geometry" />
        </mxCell>
        <mxCell id="ZZ2-Vk3kk8kp50ai1rFV-65" value="" style="shape=cube;whiteSpace=wrap;html=1;boundedLbl=1;backgroundOutline=1;darkOpacity=0.05;darkOpacity2=0.1;size=10;strokeColor=#A3A6A9;" parent="iUH99zcMU_aRpIpPgrOb-36" vertex="1">
          <mxGeometry x="250" y="60" width="40" height="40" as="geometry" />
        </mxCell>
        <mxCell id="ZZ2-Vk3kk8kp50ai1rFV-66" value="" style="shape=cube;whiteSpace=wrap;html=1;boundedLbl=1;backgroundOutline=1;darkOpacity=0.05;darkOpacity2=0.1;size=10;strokeColor=#A3A6A9;" parent="iUH99zcMU_aRpIpPgrOb-36" vertex="1">
          <mxGeometry x="260" y="70" width="40" height="40" as="geometry" />
        </mxCell>
        <mxCell id="ZZ2-Vk3kk8kp50ai1rFV-67" value="" style="shape=cube;whiteSpace=wrap;html=1;boundedLbl=1;backgroundOutline=1;darkOpacity=0.05;darkOpacity2=0.1;size=10;strokeColor=#A3A6A9;" parent="iUH99zcMU_aRpIpPgrOb-36" vertex="1">
          <mxGeometry x="270" y="80" width="40" height="40" as="geometry" />
        </mxCell>
        <mxCell id="ZZ2-Vk3kk8kp50ai1rFV-68" value="" style="shape=cube;whiteSpace=wrap;html=1;boundedLbl=1;backgroundOutline=1;darkOpacity=0.05;darkOpacity2=0.1;size=10;strokeColor=#A3A6A9;" parent="iUH99zcMU_aRpIpPgrOb-36" vertex="1">
          <mxGeometry x="280" y="90" width="40" height="40" as="geometry" />
        </mxCell>
        <mxCell id="ZZ2-Vk3kk8kp50ai1rFV-69" value="" style="shape=cube;whiteSpace=wrap;html=1;boundedLbl=1;backgroundOutline=1;darkOpacity=0.05;darkOpacity2=0.1;size=10;strokeColor=#A3A6A9;" parent="iUH99zcMU_aRpIpPgrOb-36" vertex="1">
          <mxGeometry x="290" y="100" width="40" height="40" as="geometry" />
        </mxCell>
        <mxCell id="ZZ2-Vk3kk8kp50ai1rFV-70" value="" style="shape=cube;whiteSpace=wrap;html=1;boundedLbl=1;backgroundOutline=1;darkOpacity=0.05;darkOpacity2=0.1;size=10;strokeColor=#A3A6A9;" parent="iUH99zcMU_aRpIpPgrOb-36" vertex="1">
          <mxGeometry x="300" y="110" width="40" height="40" as="geometry" />
        </mxCell>
        <mxCell id="ZZ2-Vk3kk8kp50ai1rFV-71" value="" style="shape=cube;whiteSpace=wrap;html=1;boundedLbl=1;backgroundOutline=1;darkOpacity=0.05;darkOpacity2=0.1;size=10;strokeColor=#A3A6A9;" parent="iUH99zcMU_aRpIpPgrOb-36" vertex="1">
          <mxGeometry x="240" y="50" width="40" height="40" as="geometry" />
        </mxCell>
        <mxCell id="ZZ2-Vk3kk8kp50ai1rFV-72" value="" style="shape=cube;whiteSpace=wrap;html=1;boundedLbl=1;backgroundOutline=1;darkOpacity=0.05;darkOpacity2=0.1;size=10;strokeColor=#A3A6A9;" parent="iUH99zcMU_aRpIpPgrOb-36" vertex="1">
          <mxGeometry x="250" y="60" width="40" height="40" as="geometry" />
        </mxCell>
        <mxCell id="ZZ2-Vk3kk8kp50ai1rFV-73" value="" style="shape=cube;whiteSpace=wrap;html=1;boundedLbl=1;backgroundOutline=1;darkOpacity=0.05;darkOpacity2=0.1;size=10;strokeColor=#A3A6A9;" parent="iUH99zcMU_aRpIpPgrOb-36" vertex="1">
          <mxGeometry x="260" y="70" width="40" height="40" as="geometry" />
        </mxCell>
        <mxCell id="ZZ2-Vk3kk8kp50ai1rFV-74" value="" style="shape=cube;whiteSpace=wrap;html=1;boundedLbl=1;backgroundOutline=1;darkOpacity=0.05;darkOpacity2=0.1;size=10;fillColor=#A8D19E;strokeColor=#A3A6A9;" parent="iUH99zcMU_aRpIpPgrOb-36" vertex="1">
          <mxGeometry x="270" y="80" width="40" height="40" as="geometry" />
        </mxCell>
        <mxCell id="ZZ2-Vk3kk8kp50ai1rFV-75" value="" style="shape=cube;whiteSpace=wrap;html=1;boundedLbl=1;backgroundOutline=1;darkOpacity=0.05;darkOpacity2=0.1;size=10;strokeColor=#A3A6A9;" parent="iUH99zcMU_aRpIpPgrOb-36" vertex="1">
          <mxGeometry x="280" y="90" width="40" height="40" as="geometry" />
        </mxCell>
        <mxCell id="ZZ2-Vk3kk8kp50ai1rFV-76" value="" style="shape=cube;whiteSpace=wrap;html=1;boundedLbl=1;backgroundOutline=1;darkOpacity=0.05;darkOpacity2=0.1;size=10;strokeColor=#A3A6A9;" parent="iUH99zcMU_aRpIpPgrOb-36" vertex="1">
          <mxGeometry x="290" y="100" width="40" height="40" as="geometry" />
        </mxCell>
        <mxCell id="ZZ2-Vk3kk8kp50ai1rFV-77" value="" style="shape=cube;whiteSpace=wrap;html=1;boundedLbl=1;backgroundOutline=1;darkOpacity=0.05;darkOpacity2=0.1;size=10;fillColor=#A8D19E;strokeColor=#A3A6A9;" parent="iUH99zcMU_aRpIpPgrOb-36" vertex="1">
          <mxGeometry x="300" y="110" width="40" height="40" as="geometry" />
        </mxCell>
        <mxCell id="ZZ2-Vk3kk8kp50ai1rFV-79" value="" style="shape=cube;whiteSpace=wrap;html=1;boundedLbl=1;backgroundOutline=1;darkOpacity=0.05;darkOpacity2=0.1;size=10;fillColor=#A8D19E;strokeColor=#A3A6A9;" parent="iUH99zcMU_aRpIpPgrOb-36" vertex="1">
          <mxGeometry x="200" y="40" width="40" height="40" as="geometry" />
        </mxCell>
        <mxCell id="ZZ2-Vk3kk8kp50ai1rFV-80" value="" style="shape=cube;whiteSpace=wrap;html=1;boundedLbl=1;backgroundOutline=1;darkOpacity=0.05;darkOpacity2=0.1;size=10;strokeColor=#A3A6A9;" parent="iUH99zcMU_aRpIpPgrOb-36" vertex="1">
          <mxGeometry x="210" y="50" width="40" height="40" as="geometry" />
        </mxCell>
        <mxCell id="ZZ2-Vk3kk8kp50ai1rFV-81" value="" style="shape=cube;whiteSpace=wrap;html=1;boundedLbl=1;backgroundOutline=1;darkOpacity=0.05;darkOpacity2=0.1;size=10;strokeColor=#A3A6A9;" parent="iUH99zcMU_aRpIpPgrOb-36" vertex="1">
          <mxGeometry x="220" y="60" width="40" height="40" as="geometry" />
        </mxCell>
        <mxCell id="ZZ2-Vk3kk8kp50ai1rFV-82" value="" style="shape=cube;whiteSpace=wrap;html=1;boundedLbl=1;backgroundOutline=1;darkOpacity=0.05;darkOpacity2=0.1;size=10;strokeColor=#A3A6A9;" parent="iUH99zcMU_aRpIpPgrOb-36" vertex="1">
          <mxGeometry x="230" y="70" width="40" height="40" as="geometry" />
        </mxCell>
        <mxCell id="ZZ2-Vk3kk8kp50ai1rFV-83" value="" style="shape=cube;whiteSpace=wrap;html=1;boundedLbl=1;backgroundOutline=1;darkOpacity=0.05;darkOpacity2=0.1;size=10;strokeColor=#A3A6A9;" parent="iUH99zcMU_aRpIpPgrOb-36" vertex="1">
          <mxGeometry x="240" y="80" width="40" height="40" as="geometry" />
        </mxCell>
        <mxCell id="ZZ2-Vk3kk8kp50ai1rFV-84" value="" style="shape=cube;whiteSpace=wrap;html=1;boundedLbl=1;backgroundOutline=1;darkOpacity=0.05;darkOpacity2=0.1;size=10;strokeColor=#A3A6A9;" parent="iUH99zcMU_aRpIpPgrOb-36" vertex="1">
          <mxGeometry x="250" y="90" width="40" height="40" as="geometry" />
        </mxCell>
        <mxCell id="ZZ2-Vk3kk8kp50ai1rFV-85" value="" style="shape=cube;whiteSpace=wrap;html=1;boundedLbl=1;backgroundOutline=1;darkOpacity=0.05;darkOpacity2=0.1;size=10;strokeColor=#A3A6A9;" parent="iUH99zcMU_aRpIpPgrOb-36" vertex="1">
          <mxGeometry x="260" y="100" width="40" height="40" as="geometry" />
        </mxCell>
        <mxCell id="ZZ2-Vk3kk8kp50ai1rFV-86" value="" style="shape=cube;whiteSpace=wrap;html=1;boundedLbl=1;backgroundOutline=1;darkOpacity=0.05;darkOpacity2=0.1;size=10;strokeColor=#A3A6A9;" parent="iUH99zcMU_aRpIpPgrOb-36" vertex="1">
          <mxGeometry x="270" y="110" width="40" height="40" as="geometry" />
        </mxCell>
        <mxCell id="ZZ2-Vk3kk8kp50ai1rFV-87" value="" style="shape=cube;whiteSpace=wrap;html=1;boundedLbl=1;backgroundOutline=1;darkOpacity=0.05;darkOpacity2=0.1;size=10;strokeColor=#A3A6A9;" parent="iUH99zcMU_aRpIpPgrOb-36" vertex="1">
          <mxGeometry x="210" y="50" width="40" height="40" as="geometry" />
        </mxCell>
        <mxCell id="ZZ2-Vk3kk8kp50ai1rFV-88" value="" style="shape=cube;whiteSpace=wrap;html=1;boundedLbl=1;backgroundOutline=1;darkOpacity=0.05;darkOpacity2=0.1;size=10;fillColor=#A8D19E;strokeColor=#A3A6A9;" parent="iUH99zcMU_aRpIpPgrOb-36" vertex="1">
          <mxGeometry x="220" y="60" width="40" height="40" as="geometry" />
        </mxCell>
        <mxCell id="ZZ2-Vk3kk8kp50ai1rFV-89" value="" style="shape=cube;whiteSpace=wrap;html=1;boundedLbl=1;backgroundOutline=1;darkOpacity=0.05;darkOpacity2=0.1;size=10;strokeColor=#A3A6A9;" parent="iUH99zcMU_aRpIpPgrOb-36" vertex="1">
          <mxGeometry x="230" y="70" width="40" height="40" as="geometry" />
        </mxCell>
        <mxCell id="ZZ2-Vk3kk8kp50ai1rFV-90" value="" style="shape=cube;whiteSpace=wrap;html=1;boundedLbl=1;backgroundOutline=1;darkOpacity=0.05;darkOpacity2=0.1;size=10;strokeColor=#A3A6A9;" parent="iUH99zcMU_aRpIpPgrOb-36" vertex="1">
          <mxGeometry x="240" y="80" width="40" height="40" as="geometry" />
        </mxCell>
        <mxCell id="ZZ2-Vk3kk8kp50ai1rFV-91" value="" style="shape=cube;whiteSpace=wrap;html=1;boundedLbl=1;backgroundOutline=1;darkOpacity=0.05;darkOpacity2=0.1;size=10;strokeColor=#A3A6A9;" parent="iUH99zcMU_aRpIpPgrOb-36" vertex="1">
          <mxGeometry x="250" y="90" width="40" height="40" as="geometry" />
        </mxCell>
        <mxCell id="ZZ2-Vk3kk8kp50ai1rFV-92" value="" style="shape=cube;whiteSpace=wrap;html=1;boundedLbl=1;backgroundOutline=1;darkOpacity=0.05;darkOpacity2=0.1;size=10;fillColor=#A8D19E;strokeColor=#A3A6A9;" parent="iUH99zcMU_aRpIpPgrOb-36" vertex="1">
          <mxGeometry x="260" y="100" width="40" height="40" as="geometry" />
        </mxCell>
        <mxCell id="ZZ2-Vk3kk8kp50ai1rFV-93" value="" style="shape=cube;whiteSpace=wrap;html=1;boundedLbl=1;backgroundOutline=1;darkOpacity=0.05;darkOpacity2=0.1;size=10;strokeColor=#A3A6A9;" parent="iUH99zcMU_aRpIpPgrOb-36" vertex="1">
          <mxGeometry x="270" y="110" width="40" height="40" as="geometry" />
        </mxCell>
        <mxCell id="ZZ2-Vk3kk8kp50ai1rFV-95" value="" style="shape=cube;whiteSpace=wrap;html=1;boundedLbl=1;backgroundOutline=1;darkOpacity=0.05;darkOpacity2=0.1;size=10;strokeColor=#A3A6A9;" parent="iUH99zcMU_aRpIpPgrOb-36" vertex="1">
          <mxGeometry x="170" y="40" width="40" height="40" as="geometry" />
        </mxCell>
        <mxCell id="ZZ2-Vk3kk8kp50ai1rFV-96" value="" style="shape=cube;whiteSpace=wrap;html=1;boundedLbl=1;backgroundOutline=1;darkOpacity=0.05;darkOpacity2=0.1;size=10;strokeColor=#A3A6A9;" parent="iUH99zcMU_aRpIpPgrOb-36" vertex="1">
          <mxGeometry x="180" y="50" width="40" height="40" as="geometry" />
        </mxCell>
        <mxCell id="ZZ2-Vk3kk8kp50ai1rFV-97" value="" style="shape=cube;whiteSpace=wrap;html=1;boundedLbl=1;backgroundOutline=1;darkOpacity=0.05;darkOpacity2=0.1;size=10;strokeColor=#A3A6A9;" parent="iUH99zcMU_aRpIpPgrOb-36" vertex="1">
          <mxGeometry x="190" y="60" width="40" height="40" as="geometry" />
        </mxCell>
        <mxCell id="ZZ2-Vk3kk8kp50ai1rFV-98" value="" style="shape=cube;whiteSpace=wrap;html=1;boundedLbl=1;backgroundOutline=1;darkOpacity=0.05;darkOpacity2=0.1;size=10;strokeColor=#A3A6A9;" parent="iUH99zcMU_aRpIpPgrOb-36" vertex="1">
          <mxGeometry x="200" y="70" width="40" height="40" as="geometry" />
        </mxCell>
        <mxCell id="ZZ2-Vk3kk8kp50ai1rFV-99" value="" style="shape=cube;whiteSpace=wrap;html=1;boundedLbl=1;backgroundOutline=1;darkOpacity=0.05;darkOpacity2=0.1;size=10;strokeColor=#A3A6A9;" parent="iUH99zcMU_aRpIpPgrOb-36" vertex="1">
          <mxGeometry x="210" y="80" width="40" height="40" as="geometry" />
        </mxCell>
        <mxCell id="ZZ2-Vk3kk8kp50ai1rFV-100" value="" style="shape=cube;whiteSpace=wrap;html=1;boundedLbl=1;backgroundOutline=1;darkOpacity=0.05;darkOpacity2=0.1;size=10;strokeColor=#A3A6A9;" parent="iUH99zcMU_aRpIpPgrOb-36" vertex="1">
          <mxGeometry x="220" y="90" width="40" height="40" as="geometry" />
        </mxCell>
        <mxCell id="ZZ2-Vk3kk8kp50ai1rFV-101" value="" style="shape=cube;whiteSpace=wrap;html=1;boundedLbl=1;backgroundOutline=1;darkOpacity=0.05;darkOpacity2=0.1;size=10;strokeColor=#A3A6A9;" parent="iUH99zcMU_aRpIpPgrOb-36" vertex="1">
          <mxGeometry x="230" y="100" width="40" height="40" as="geometry" />
        </mxCell>
        <mxCell id="ZZ2-Vk3kk8kp50ai1rFV-102" value="" style="shape=cube;whiteSpace=wrap;html=1;boundedLbl=1;backgroundOutline=1;darkOpacity=0.05;darkOpacity2=0.1;size=10;strokeColor=#A3A6A9;" parent="iUH99zcMU_aRpIpPgrOb-36" vertex="1">
          <mxGeometry x="240" y="110" width="40" height="40" as="geometry" />
        </mxCell>
        <mxCell id="ZZ2-Vk3kk8kp50ai1rFV-103" value="" style="shape=cube;whiteSpace=wrap;html=1;boundedLbl=1;backgroundOutline=1;darkOpacity=0.05;darkOpacity2=0.1;size=10;strokeColor=#A3A6A9;" parent="iUH99zcMU_aRpIpPgrOb-36" vertex="1">
          <mxGeometry x="180" y="50" width="40" height="40" as="geometry" />
        </mxCell>
        <mxCell id="ZZ2-Vk3kk8kp50ai1rFV-104" value="" style="shape=cube;whiteSpace=wrap;html=1;boundedLbl=1;backgroundOutline=1;darkOpacity=0.05;darkOpacity2=0.1;size=10;strokeColor=#A3A6A9;" parent="iUH99zcMU_aRpIpPgrOb-36" vertex="1">
          <mxGeometry x="190" y="60" width="40" height="40" as="geometry" />
        </mxCell>
        <mxCell id="ZZ2-Vk3kk8kp50ai1rFV-105" value="" style="shape=cube;whiteSpace=wrap;html=1;boundedLbl=1;backgroundOutline=1;darkOpacity=0.05;darkOpacity2=0.1;size=10;strokeColor=#A3A6A9;" parent="iUH99zcMU_aRpIpPgrOb-36" vertex="1">
          <mxGeometry x="200" y="70" width="40" height="40" as="geometry" />
        </mxCell>
        <mxCell id="ZZ2-Vk3kk8kp50ai1rFV-106" value="" style="shape=cube;whiteSpace=wrap;html=1;boundedLbl=1;backgroundOutline=1;darkOpacity=0.05;darkOpacity2=0.1;size=10;fillColor=#A8D19E;strokeColor=#A3A6A9;" parent="iUH99zcMU_aRpIpPgrOb-36" vertex="1">
          <mxGeometry x="210" y="80" width="40" height="40" as="geometry" />
        </mxCell>
        <mxCell id="ZZ2-Vk3kk8kp50ai1rFV-107" value="" style="shape=cube;whiteSpace=wrap;html=1;boundedLbl=1;backgroundOutline=1;darkOpacity=0.05;darkOpacity2=0.1;size=10;fillColor=#A8D19E;strokeColor=#A3A6A9;" parent="iUH99zcMU_aRpIpPgrOb-36" vertex="1">
          <mxGeometry x="220" y="90" width="40" height="40" as="geometry" />
        </mxCell>
        <mxCell id="ZZ2-Vk3kk8kp50ai1rFV-108" value="" style="shape=cube;whiteSpace=wrap;html=1;boundedLbl=1;backgroundOutline=1;darkOpacity=0.05;darkOpacity2=0.1;size=10;strokeColor=#A3A6A9;" parent="iUH99zcMU_aRpIpPgrOb-36" vertex="1">
          <mxGeometry x="230" y="100" width="40" height="40" as="geometry" />
        </mxCell>
        <mxCell id="ZZ2-Vk3kk8kp50ai1rFV-109" value="" style="shape=cube;whiteSpace=wrap;html=1;boundedLbl=1;backgroundOutline=1;darkOpacity=0.05;darkOpacity2=0.1;size=10;fillColor=#A8D19E;strokeColor=#A3A6A9;" parent="iUH99zcMU_aRpIpPgrOb-36" vertex="1">
          <mxGeometry x="240" y="110" width="40" height="40" as="geometry" />
        </mxCell>
        <mxCell id="ZZ2-Vk3kk8kp50ai1rFV-111" value="" style="shape=cube;whiteSpace=wrap;html=1;boundedLbl=1;backgroundOutline=1;darkOpacity=0.05;darkOpacity2=0.1;size=10;strokeColor=#A3A6A9;" parent="iUH99zcMU_aRpIpPgrOb-36" vertex="1">
          <mxGeometry x="140" y="40" width="40" height="40" as="geometry" />
        </mxCell>
        <mxCell id="ZZ2-Vk3kk8kp50ai1rFV-112" value="" style="shape=cube;whiteSpace=wrap;html=1;boundedLbl=1;backgroundOutline=1;darkOpacity=0.05;darkOpacity2=0.1;size=10;strokeColor=#A3A6A9;" parent="iUH99zcMU_aRpIpPgrOb-36" vertex="1">
          <mxGeometry x="150" y="50" width="40" height="40" as="geometry" />
        </mxCell>
        <mxCell id="ZZ2-Vk3kk8kp50ai1rFV-113" value="" style="shape=cube;whiteSpace=wrap;html=1;boundedLbl=1;backgroundOutline=1;darkOpacity=0.05;darkOpacity2=0.1;size=10;strokeColor=#A3A6A9;" parent="iUH99zcMU_aRpIpPgrOb-36" vertex="1">
          <mxGeometry x="160" y="60" width="40" height="40" as="geometry" />
        </mxCell>
        <mxCell id="ZZ2-Vk3kk8kp50ai1rFV-114" value="" style="shape=cube;whiteSpace=wrap;html=1;boundedLbl=1;backgroundOutline=1;darkOpacity=0.05;darkOpacity2=0.1;size=10;strokeColor=#A3A6A9;" parent="iUH99zcMU_aRpIpPgrOb-36" vertex="1">
          <mxGeometry x="170" y="70" width="40" height="40" as="geometry" />
        </mxCell>
        <mxCell id="ZZ2-Vk3kk8kp50ai1rFV-115" value="" style="shape=cube;whiteSpace=wrap;html=1;boundedLbl=1;backgroundOutline=1;darkOpacity=0.05;darkOpacity2=0.1;size=10;strokeColor=#A3A6A9;" parent="iUH99zcMU_aRpIpPgrOb-36" vertex="1">
          <mxGeometry x="180" y="80" width="40" height="40" as="geometry" />
        </mxCell>
        <mxCell id="ZZ2-Vk3kk8kp50ai1rFV-116" value="" style="shape=cube;whiteSpace=wrap;html=1;boundedLbl=1;backgroundOutline=1;darkOpacity=0.05;darkOpacity2=0.1;size=10;strokeColor=#A3A6A9;" parent="iUH99zcMU_aRpIpPgrOb-36" vertex="1">
          <mxGeometry x="190" y="90" width="40" height="40" as="geometry" />
        </mxCell>
        <mxCell id="ZZ2-Vk3kk8kp50ai1rFV-117" value="" style="shape=cube;whiteSpace=wrap;html=1;boundedLbl=1;backgroundOutline=1;darkOpacity=0.05;darkOpacity2=0.1;size=10;strokeColor=#A3A6A9;" parent="iUH99zcMU_aRpIpPgrOb-36" vertex="1">
          <mxGeometry x="200" y="100" width="40" height="40" as="geometry" />
        </mxCell>
        <mxCell id="ZZ2-Vk3kk8kp50ai1rFV-118" value="" style="shape=cube;whiteSpace=wrap;html=1;boundedLbl=1;backgroundOutline=1;darkOpacity=0.05;darkOpacity2=0.1;size=10;strokeColor=#A3A6A9;" parent="iUH99zcMU_aRpIpPgrOb-36" vertex="1">
          <mxGeometry x="210" y="110" width="40" height="40" as="geometry" />
        </mxCell>
        <mxCell id="ZZ2-Vk3kk8kp50ai1rFV-119" value="" style="shape=cube;whiteSpace=wrap;html=1;boundedLbl=1;backgroundOutline=1;darkOpacity=0.05;darkOpacity2=0.1;size=10;fillColor=#A8D19E;strokeColor=#A3A6A9;" parent="iUH99zcMU_aRpIpPgrOb-36" vertex="1">
          <mxGeometry x="150" y="50" width="40" height="40" as="geometry" />
        </mxCell>
        <mxCell id="ZZ2-Vk3kk8kp50ai1rFV-120" value="" style="shape=cube;whiteSpace=wrap;html=1;boundedLbl=1;backgroundOutline=1;darkOpacity=0.05;darkOpacity2=0.1;size=10;fillColor=#FFFFFF;strokeColor=#A3A6A9;" parent="iUH99zcMU_aRpIpPgrOb-36" vertex="1">
          <mxGeometry x="160" y="60" width="40" height="40" as="geometry" />
        </mxCell>
        <mxCell id="ZZ2-Vk3kk8kp50ai1rFV-121" value="" style="shape=cube;whiteSpace=wrap;html=1;boundedLbl=1;backgroundOutline=1;darkOpacity=0.05;darkOpacity2=0.1;size=10;strokeColor=#A3A6A9;" parent="iUH99zcMU_aRpIpPgrOb-36" vertex="1">
          <mxGeometry x="170" y="70" width="40" height="40" as="geometry" />
        </mxCell>
        <mxCell id="ZZ2-Vk3kk8kp50ai1rFV-122" value="" style="shape=cube;whiteSpace=wrap;html=1;boundedLbl=1;backgroundOutline=1;darkOpacity=0.05;darkOpacity2=0.1;size=10;fillColor=#A8D19E;strokeColor=#A3A6A9;" parent="iUH99zcMU_aRpIpPgrOb-36" vertex="1">
          <mxGeometry x="180" y="80" width="40" height="40" as="geometry" />
        </mxCell>
        <mxCell id="ZZ2-Vk3kk8kp50ai1rFV-123" value="" style="shape=cube;whiteSpace=wrap;html=1;boundedLbl=1;backgroundOutline=1;darkOpacity=0.05;darkOpacity2=0.1;size=10;strokeColor=#A3A6A9;" parent="iUH99zcMU_aRpIpPgrOb-36" vertex="1">
          <mxGeometry x="190" y="90" width="40" height="40" as="geometry" />
        </mxCell>
        <mxCell id="ZZ2-Vk3kk8kp50ai1rFV-124" value="" style="shape=cube;whiteSpace=wrap;html=1;boundedLbl=1;backgroundOutline=1;darkOpacity=0.05;darkOpacity2=0.1;size=10;strokeColor=#A3A6A9;" parent="iUH99zcMU_aRpIpPgrOb-36" vertex="1">
          <mxGeometry x="200" y="100" width="40" height="40" as="geometry" />
        </mxCell>
        <mxCell id="ZZ2-Vk3kk8kp50ai1rFV-125" value="" style="shape=cube;whiteSpace=wrap;html=1;boundedLbl=1;backgroundOutline=1;darkOpacity=0.05;darkOpacity2=0.1;size=10;fillColor=#A8D19E;strokeColor=#A3A6A9;" parent="iUH99zcMU_aRpIpPgrOb-36" vertex="1">
          <mxGeometry x="210" y="110" width="40" height="40" as="geometry" />
        </mxCell>
        <mxCell id="ZZ2-Vk3kk8kp50ai1rFV-127" value="" style="shape=cube;whiteSpace=wrap;html=1;boundedLbl=1;backgroundOutline=1;darkOpacity=0.05;darkOpacity2=0.1;size=10;fillColor=#A8D19E;strokeColor=#A3A6A9;" parent="iUH99zcMU_aRpIpPgrOb-36" vertex="1">
          <mxGeometry x="110" y="40" width="40" height="40" as="geometry" />
        </mxCell>
        <mxCell id="ZZ2-Vk3kk8kp50ai1rFV-128" value="" style="shape=cube;whiteSpace=wrap;html=1;boundedLbl=1;backgroundOutline=1;darkOpacity=0.05;darkOpacity2=0.1;size=10;strokeColor=#A3A6A9;" parent="iUH99zcMU_aRpIpPgrOb-36" vertex="1">
          <mxGeometry x="120" y="50" width="40" height="40" as="geometry" />
        </mxCell>
        <mxCell id="ZZ2-Vk3kk8kp50ai1rFV-129" value="" style="shape=cube;whiteSpace=wrap;html=1;boundedLbl=1;backgroundOutline=1;darkOpacity=0.05;darkOpacity2=0.1;size=10;strokeColor=#A3A6A9;" parent="iUH99zcMU_aRpIpPgrOb-36" vertex="1">
          <mxGeometry x="130" y="60" width="40" height="40" as="geometry" />
        </mxCell>
        <mxCell id="ZZ2-Vk3kk8kp50ai1rFV-130" value="" style="shape=cube;whiteSpace=wrap;html=1;boundedLbl=1;backgroundOutline=1;darkOpacity=0.05;darkOpacity2=0.1;size=10;strokeColor=#A3A6A9;" parent="iUH99zcMU_aRpIpPgrOb-36" vertex="1">
          <mxGeometry x="140" y="70" width="40" height="40" as="geometry" />
        </mxCell>
        <mxCell id="ZZ2-Vk3kk8kp50ai1rFV-131" value="" style="shape=cube;whiteSpace=wrap;html=1;boundedLbl=1;backgroundOutline=1;darkOpacity=0.05;darkOpacity2=0.1;size=10;strokeColor=#A3A6A9;" parent="iUH99zcMU_aRpIpPgrOb-36" vertex="1">
          <mxGeometry x="150" y="80" width="40" height="40" as="geometry" />
        </mxCell>
        <mxCell id="ZZ2-Vk3kk8kp50ai1rFV-132" value="" style="shape=cube;whiteSpace=wrap;html=1;boundedLbl=1;backgroundOutline=1;darkOpacity=0.05;darkOpacity2=0.1;size=10;strokeColor=#A3A6A9;" parent="iUH99zcMU_aRpIpPgrOb-36" vertex="1">
          <mxGeometry x="160" y="90" width="40" height="40" as="geometry" />
        </mxCell>
        <mxCell id="ZZ2-Vk3kk8kp50ai1rFV-133" value="" style="shape=cube;whiteSpace=wrap;html=1;boundedLbl=1;backgroundOutline=1;darkOpacity=0.05;darkOpacity2=0.1;size=10;strokeColor=#A3A6A9;" parent="iUH99zcMU_aRpIpPgrOb-36" vertex="1">
          <mxGeometry x="170" y="100" width="40" height="40" as="geometry" />
        </mxCell>
        <mxCell id="ZZ2-Vk3kk8kp50ai1rFV-134" value="" style="shape=cube;whiteSpace=wrap;html=1;boundedLbl=1;backgroundOutline=1;darkOpacity=0.05;darkOpacity2=0.1;size=10;strokeColor=#A3A6A9;" parent="iUH99zcMU_aRpIpPgrOb-36" vertex="1">
          <mxGeometry x="180" y="110" width="40" height="40" as="geometry" />
        </mxCell>
        <mxCell id="ZZ2-Vk3kk8kp50ai1rFV-135" value="" style="shape=cube;whiteSpace=wrap;html=1;boundedLbl=1;backgroundOutline=1;darkOpacity=0.05;darkOpacity2=0.1;size=10;strokeColor=#A3A6A9;" parent="iUH99zcMU_aRpIpPgrOb-36" vertex="1">
          <mxGeometry x="120" y="50" width="40" height="40" as="geometry" />
        </mxCell>
        <mxCell id="ZZ2-Vk3kk8kp50ai1rFV-136" value="" style="shape=cube;whiteSpace=wrap;html=1;boundedLbl=1;backgroundOutline=1;darkOpacity=0.05;darkOpacity2=0.1;size=10;fillColor=#A8D19E;strokeColor=#A3A6A9;" parent="iUH99zcMU_aRpIpPgrOb-36" vertex="1">
          <mxGeometry x="130" y="60" width="40" height="40" as="geometry" />
        </mxCell>
        <mxCell id="ZZ2-Vk3kk8kp50ai1rFV-137" value="" style="shape=cube;whiteSpace=wrap;html=1;boundedLbl=1;backgroundOutline=1;darkOpacity=0.05;darkOpacity2=0.1;size=10;fillColor=#A8D19E;strokeColor=#A3A6A9;" parent="iUH99zcMU_aRpIpPgrOb-36" vertex="1">
          <mxGeometry x="140" y="70" width="40" height="40" as="geometry" />
        </mxCell>
        <mxCell id="ZZ2-Vk3kk8kp50ai1rFV-138" value="" style="shape=cube;whiteSpace=wrap;html=1;boundedLbl=1;backgroundOutline=1;darkOpacity=0.05;darkOpacity2=0.1;size=10;strokeColor=#A3A6A9;" parent="iUH99zcMU_aRpIpPgrOb-36" vertex="1">
          <mxGeometry x="150" y="80" width="40" height="40" as="geometry" />
        </mxCell>
        <mxCell id="ZZ2-Vk3kk8kp50ai1rFV-139" value="" style="shape=cube;whiteSpace=wrap;html=1;boundedLbl=1;backgroundOutline=1;darkOpacity=0.05;darkOpacity2=0.1;size=10;strokeColor=#A3A6A9;" parent="iUH99zcMU_aRpIpPgrOb-36" vertex="1">
          <mxGeometry x="160" y="90" width="40" height="40" as="geometry" />
        </mxCell>
        <mxCell id="ZZ2-Vk3kk8kp50ai1rFV-140" value="" style="shape=cube;whiteSpace=wrap;html=1;boundedLbl=1;backgroundOutline=1;darkOpacity=0.05;darkOpacity2=0.1;size=10;fillColor=#A8D19E;strokeColor=#A3A6A9;" parent="iUH99zcMU_aRpIpPgrOb-36" vertex="1">
          <mxGeometry x="170" y="100" width="40" height="40" as="geometry" />
        </mxCell>
        <mxCell id="ZZ2-Vk3kk8kp50ai1rFV-141" value="" style="shape=cube;whiteSpace=wrap;html=1;boundedLbl=1;backgroundOutline=1;darkOpacity=0.05;darkOpacity2=0.1;size=10;strokeColor=#A3A6A9;" parent="iUH99zcMU_aRpIpPgrOb-36" vertex="1">
          <mxGeometry x="180" y="110" width="40" height="40" as="geometry" />
        </mxCell>
        <mxCell id="ZZ2-Vk3kk8kp50ai1rFV-143" value="" style="shape=cube;whiteSpace=wrap;html=1;boundedLbl=1;backgroundOutline=1;darkOpacity=0.05;darkOpacity2=0.1;size=10;fillColor=#A8D19E;strokeColor=#A3A6A9;" parent="iUH99zcMU_aRpIpPgrOb-36" vertex="1">
          <mxGeometry x="80" y="40" width="40" height="40" as="geometry" />
        </mxCell>
        <mxCell id="ZZ2-Vk3kk8kp50ai1rFV-144" value="" style="shape=cube;whiteSpace=wrap;html=1;boundedLbl=1;backgroundOutline=1;darkOpacity=0.05;darkOpacity2=0.1;size=10;strokeColor=#A3A6A9;" parent="iUH99zcMU_aRpIpPgrOb-36" vertex="1">
          <mxGeometry x="90" y="50" width="40" height="40" as="geometry" />
        </mxCell>
        <mxCell id="ZZ2-Vk3kk8kp50ai1rFV-145" value="" style="shape=cube;whiteSpace=wrap;html=1;boundedLbl=1;backgroundOutline=1;darkOpacity=0.05;darkOpacity2=0.1;size=10;strokeColor=#A3A6A9;" parent="iUH99zcMU_aRpIpPgrOb-36" vertex="1">
          <mxGeometry x="100" y="60" width="40" height="40" as="geometry" />
        </mxCell>
        <mxCell id="ZZ2-Vk3kk8kp50ai1rFV-146" value="" style="shape=cube;whiteSpace=wrap;html=1;boundedLbl=1;backgroundOutline=1;darkOpacity=0.05;darkOpacity2=0.1;size=10;strokeColor=#A3A6A9;" parent="iUH99zcMU_aRpIpPgrOb-36" vertex="1">
          <mxGeometry x="110" y="70" width="40" height="40" as="geometry" />
        </mxCell>
        <mxCell id="ZZ2-Vk3kk8kp50ai1rFV-147" value="" style="shape=cube;whiteSpace=wrap;html=1;boundedLbl=1;backgroundOutline=1;darkOpacity=0.05;darkOpacity2=0.1;size=10;strokeColor=#A3A6A9;" parent="iUH99zcMU_aRpIpPgrOb-36" vertex="1">
          <mxGeometry x="120" y="80" width="40" height="40" as="geometry" />
        </mxCell>
        <mxCell id="ZZ2-Vk3kk8kp50ai1rFV-148" value="" style="shape=cube;whiteSpace=wrap;html=1;boundedLbl=1;backgroundOutline=1;darkOpacity=0.05;darkOpacity2=0.1;size=10;strokeColor=#A3A6A9;" parent="iUH99zcMU_aRpIpPgrOb-36" vertex="1">
          <mxGeometry x="130" y="90" width="40" height="40" as="geometry" />
        </mxCell>
        <mxCell id="ZZ2-Vk3kk8kp50ai1rFV-149" value="" style="shape=cube;whiteSpace=wrap;html=1;boundedLbl=1;backgroundOutline=1;darkOpacity=0.05;darkOpacity2=0.1;size=10;strokeColor=#A3A6A9;" parent="iUH99zcMU_aRpIpPgrOb-36" vertex="1">
          <mxGeometry x="140" y="100" width="40" height="40" as="geometry" />
        </mxCell>
        <mxCell id="ZZ2-Vk3kk8kp50ai1rFV-150" value="" style="shape=cube;whiteSpace=wrap;html=1;boundedLbl=1;backgroundOutline=1;darkOpacity=0.05;darkOpacity2=0.1;size=10;strokeColor=#A3A6A9;" parent="iUH99zcMU_aRpIpPgrOb-36" vertex="1">
          <mxGeometry x="150" y="110" width="40" height="40" as="geometry" />
        </mxCell>
        <mxCell id="ZZ2-Vk3kk8kp50ai1rFV-151" value="" style="shape=cube;whiteSpace=wrap;html=1;boundedLbl=1;backgroundOutline=1;darkOpacity=0.05;darkOpacity2=0.1;size=10;fillColor=#FFFFFF;strokeColor=#A3A6A9;" parent="iUH99zcMU_aRpIpPgrOb-36" vertex="1">
          <mxGeometry x="90" y="50" width="40" height="40" as="geometry" />
        </mxCell>
        <mxCell id="ZZ2-Vk3kk8kp50ai1rFV-152" value="" style="shape=cube;whiteSpace=wrap;html=1;boundedLbl=1;backgroundOutline=1;darkOpacity=0.05;darkOpacity2=0.1;size=10;strokeColor=#A3A6A9;" parent="iUH99zcMU_aRpIpPgrOb-36" vertex="1">
          <mxGeometry x="100" y="60" width="40" height="40" as="geometry" />
        </mxCell>
        <mxCell id="ZZ2-Vk3kk8kp50ai1rFV-153" value="" style="shape=cube;whiteSpace=wrap;html=1;boundedLbl=1;backgroundOutline=1;darkOpacity=0.05;darkOpacity2=0.1;size=10;fillColor=#A8D19E;strokeColor=#A3A6A9;" parent="iUH99zcMU_aRpIpPgrOb-36" vertex="1">
          <mxGeometry x="110" y="70" width="40" height="40" as="geometry" />
        </mxCell>
        <mxCell id="ZZ2-Vk3kk8kp50ai1rFV-154" value="" style="shape=cube;whiteSpace=wrap;html=1;boundedLbl=1;backgroundOutline=1;darkOpacity=0.05;darkOpacity2=0.1;size=10;strokeColor=#A3A6A9;" parent="iUH99zcMU_aRpIpPgrOb-36" vertex="1">
          <mxGeometry x="120" y="80" width="40" height="40" as="geometry" />
        </mxCell>
        <mxCell id="ZZ2-Vk3kk8kp50ai1rFV-155" value="" style="shape=cube;whiteSpace=wrap;html=1;boundedLbl=1;backgroundOutline=1;darkOpacity=0.05;darkOpacity2=0.1;size=10;fillColor=#A8D19E;strokeColor=#A3A6A9;" parent="iUH99zcMU_aRpIpPgrOb-36" vertex="1">
          <mxGeometry x="130" y="90" width="40" height="40" as="geometry" />
        </mxCell>
        <mxCell id="ZZ2-Vk3kk8kp50ai1rFV-156" value="" style="shape=cube;whiteSpace=wrap;html=1;boundedLbl=1;backgroundOutline=1;darkOpacity=0.05;darkOpacity2=0.1;size=10;strokeColor=#A3A6A9;" parent="iUH99zcMU_aRpIpPgrOb-36" vertex="1">
          <mxGeometry x="140" y="100" width="40" height="40" as="geometry" />
        </mxCell>
        <mxCell id="ZZ2-Vk3kk8kp50ai1rFV-157" value="" style="shape=cube;whiteSpace=wrap;html=1;boundedLbl=1;backgroundOutline=1;darkOpacity=0.05;darkOpacity2=0.1;size=10;fillColor=light-dark(#A8D19E,#38F37C);strokeColor=#A3A6A9;" parent="iUH99zcMU_aRpIpPgrOb-36" vertex="1">
          <mxGeometry x="150" y="110" width="40" height="40" as="geometry" />
        </mxCell>
        <mxCell id="ZZ2-Vk3kk8kp50ai1rFV-596" value="" style="shape=cube;whiteSpace=wrap;html=1;boundedLbl=1;backgroundOutline=1;darkOpacity=0.05;darkOpacity2=0.1;size=80;strokeColor=#303030;fillColor=none;" parent="iUH99zcMU_aRpIpPgrOb-36" vertex="1">
          <mxGeometry x="80" y="40" width="170" height="160" as="geometry" />
        </mxCell>
        <mxCell id="iUH99zcMU_aRpIpPgrOb-1" value="$$W_A$$" style="text;html=1;align=center;verticalAlign=middle;resizable=0;points=[];autosize=1;strokeColor=none;fillColor=none;fontSize=24;fontColor=#303030;" vertex="1" parent="iUH99zcMU_aRpIpPgrOb-36">
          <mxGeometry x="150" y="5" width="130" height="40" as="geometry" />
        </mxCell>
        <mxCell id="iUH99zcMU_aRpIpPgrOb-2" value="$$C$$" style="text;html=1;align=center;verticalAlign=middle;resizable=0;points=[];autosize=1;strokeColor=none;fillColor=none;fontSize=24;" vertex="1" parent="iUH99zcMU_aRpIpPgrOb-36">
          <mxGeometry x="320" y="45" width="90" height="40" as="geometry" />
        </mxCell>
        <mxCell id="iUH99zcMU_aRpIpPgrOb-3" value="$$H_A$$" style="text;html=1;align=center;verticalAlign=middle;resizable=0;points=[];autosize=1;strokeColor=none;fillColor=none;fontSize=24;fontColor=#303030;" vertex="1" parent="iUH99zcMU_aRpIpPgrOb-36">
          <mxGeometry y="135" width="120" height="40" as="geometry" />
        </mxCell>
        <mxCell id="iUH99zcMU_aRpIpPgrOb-7" value="$$O$$" style="text;html=1;align=center;verticalAlign=middle;resizable=0;points=[];autosize=1;strokeColor=none;fillColor=none;fontSize=18;fontColor=#5E5E5E;" vertex="1" parent="iUH99zcMU_aRpIpPgrOb-36">
          <mxGeometry x="40" y="10" width="80" height="40" as="geometry" />
        </mxCell>
        <mxCell id="iUH99zcMU_aRpIpPgrOb-8" value="$$w_a$$" style="text;html=1;align=center;verticalAlign=middle;resizable=0;points=[];autosize=1;strokeColor=none;fillColor=none;fontSize=18;fontColor=#5E5E5E;" vertex="1" parent="iUH99zcMU_aRpIpPgrOb-36">
          <mxGeometry x="270" y="10" width="100" height="40" as="geometry" />
        </mxCell>
        <mxCell id="iUH99zcMU_aRpIpPgrOb-10" value="$$h_a$$" style="text;html=1;align=center;verticalAlign=middle;resizable=0;points=[];autosize=1;strokeColor=none;fillColor=none;fontSize=18;fontColor=#5E5E5E;" vertex="1" parent="iUH99zcMU_aRpIpPgrOb-36">
          <mxGeometry x="20" y="240" width="90" height="40" as="geometry" />
        </mxCell>
        <mxCell id="iUH99zcMU_aRpIpPgrOb-16" value="" style="endArrow=classic;html=1;rounded=0;exitX=0.5;exitY=0;exitDx=0;exitDy=0;strokeColor=#5E5E5E;" edge="1" parent="iUH99zcMU_aRpIpPgrOb-36" source="iUH99zcMU_aRpIpPgrOb-18">
          <mxGeometry width="50" height="50" relative="1" as="geometry">
            <mxPoint x="490" y="115" as="sourcePoint" />
            <mxPoint x="250" y="195" as="targetPoint" />
          </mxGeometry>
        </mxCell>
        <mxCell id="iUH99zcMU_aRpIpPgrOb-18" value="Sliding window" style="text;html=1;align=center;verticalAlign=middle;whiteSpace=wrap;rounded=0;fontSize=24;fontColor=#5E5E5E;" vertex="1" parent="iUH99zcMU_aRpIpPgrOb-36">
          <mxGeometry x="200" y="240" width="180" height="30" as="geometry" />
        </mxCell>
        <mxCell id="iUH99zcMU_aRpIpPgrOb-9" value="$$c$$" style="text;html=1;align=center;verticalAlign=middle;resizable=0;points=[];autosize=1;strokeColor=none;fillColor=none;fontSize=18;fontColor=#5E5E5E;" vertex="1" parent="iUH99zcMU_aRpIpPgrOb-36">
          <mxGeometry x="370" y="90" width="70" height="40" as="geometry" />
        </mxCell>
      </root>
    </mxGraphModel>
  </diagram>
</mxfile>
